Coordinates
version=1
nRows=28
nColumns=38
inDegrees=no

Units are S.I. units (second, meters, Newtons, ...)
If the header above contains a line with 'inDegrees', this indicates whether rotational values are in degrees (yes) or radians (no).

endheader
time	pelvis_tilt	pelvis_list	pelvis_rotation	pelvis_tx	pelvis_ty	pelvis_tz	hip_flexion_r	hip_adduction_r	hip_rotation_r	knee_angle_r	ankle_angle_r	subtalar_angle_r	mtp_angle_r	hip_flexion_l	hip_adduction_l	hip_rotation_l	knee_angle_l	ankle_angle_l	subtalar_angle_l	mtp_angle_l	lumbar_extension	lumbar_bending	lumbar_rotation	arm_flex_r	arm_add_r	arm_rot_r	elbow_flex_r	pro_sup_r	wrist_flex_r	wrist_dev_r	arm_flex_l	arm_add_l	arm_rot_l	elbow_flex_l	pro_sup_l	wrist_flex_l	wrist_dev_l
3.665	-0.00402246	-0.0672275	-0.0845042	1.63485	1.01451	-0.46917	-0.328898	0.0726795	0.102886	0.0416205	0.175695	0.0719997	4.49727e-11	0.439187	-0.099806	-0.0954469	0.0619261	-0.0109125	-0.0528269	3.44313e-11	-0.278871	0.0350481	0.12499	-0.0381965	-0.377718	-0.19724	1.30012	1.46689	-3.06424e-12	-1.17414e-11	-0.182085	-0.0729574	-0.188664	0.688703	1.48393	1.55413e-12	-7.84182e-12
3.67	-0.00345213	-0.0647532	-0.0859384	1.6417	1.01377	-0.46967	-0.335041	0.0680794	0.0997714	0.0438633	0.173538	0.0754139	4.49727e-11	0.438876	-0.0960089	-0.100401	0.065725	-0.0131716	-0.0550524	3.44313e-11	-0.278622	0.0317174	0.125006	-0.0371754	-0.376408	-0.198721	1.29788	1.46714	-3.06424e-12	-1.17414e-11	-0.183024	-0.0728547	-0.189053	0.688725	1.48391	1.55413e-12	-7.84182e-12
3.675	-0.00267124	-0.0621234	-0.0872954	1.64866	1.01308	-0.470165	-0.341156	0.0633186	0.0963894	0.0466441	0.170927	0.0786666	4.49727e-11	0.43829	-0.092114	-0.105615	0.0711111	-0.0156824	-0.0574385	3.44313e-11	-0.278377	0.0281413	0.124824	-0.0366593	-0.374705	-0.20052	1.29535	1.46742	-3.06424e-12	-1.17414e-11	-0.183857	-0.0729334	-0.189487	0.688752	1.48386	1.55413e-12	-7.84182e-12
3.68	-0.00167769	-0.0593943	-0.0886293	1.65572	1.01246	-0.470648	-0.347216	0.0584437	0.0928137	0.0500227	0.167836	0.0817027	5.35081e-11	0.437365	-0.0882231	-0.110955	0.0779889	-0.0184051	-0.0599845	3.85427e-11	-0.278141	0.0243654	0.124501	-0.0366656	-0.372608	-0.20265	1.29252	1.46775	-9.21652e-13	-1.70264e-11	-0.184581	-0.0732027	-0.189948	0.688771	1.48376	2.11004e-12	-1.18503e-11
3.685	-0.000480897	-0.0566294	-0.0899891	1.66289	1.01188	-0.471112	-0.353186	0.0535079	0.0891209	0.0540573	0.164241	0.0844686	5.35081e-11	0.436055	-0.0844429	-0.116278	0.0862319	-0.0212869	-0.0626828	3.85427e-11	-0.277912	0.0204468	0.124098	-0.0372032	-0.370116	-0.205119	1.28939	1.46811	-9.21652e-13	-1.70264e-11	-0.185196	-0.0736661	-0.190417	0.68877	1.48365	2.11004e-12	-1.18503e-11
3.69	0.000896398	-0.0538889	-0.0914017	1.67016	1.01137	-0.471554	-0.35902	0.0485651	0.0853739	0.0588021	0.160118	0.0869196	5.35081e-11	0.434337	-0.0808656	-0.121444	0.0956806	-0.0242684	-0.0655145	3.85427e-11	-0.277686	0.0164487	0.12366	-0.0382711	-0.367235	-0.207931	1.28597	1.46851	-9.21652e-13	-1.70264e-11	-0.1857	-0.0743222	-0.190877	0.688739	1.48349	2.11004e-12	-1.18503e-11
3.695	0.00241835	-0.0512167	-0.0928546	1.67753	1.0109	-0.471974	-0.364659	0.0436625	0.081606	0.064307	0.155456	0.0890233	5.35081e-11	0.432223	-0.0775479	-0.126331	0.106149	-0.027288	-0.0684467	3.85427e-11	-0.277452	0.0124321	0.123199	-0.0398565	-0.363976	-0.211081	1.28224	1.46892	-9.21652e-13	-1.70264e-11	-0.186088	-0.075165	-0.191313	0.688669	1.4833	2.11004e-12	-1.18503e-11
3.7	0.00404261	-0.0486268	-0.094281	1.68498	1.01047	-0.472383	-0.370039	0.0388342	0.0778093	0.0706197	0.150253	0.0907592	5.35081e-11	0.429762	-0.0744948	-0.130846	0.117435	-0.0302874	-0.0714324	3.85427e-11	-0.277197	0.00844703	0.122687	-0.0419334	-0.36035	-0.214554	1.27819	1.46936	-9.21652e-13	-1.70264e-11	-0.186352	-0.0761849	-0.191715	0.688551	1.48307	2.11004e-12	-1.18503e-11
3.705	0.00574645	-0.0461126	-0.0955962	1.69253	1.01009	-0.472791	-0.375085	0.034095	0.0739304	0.0777892	0.144521	0.09212	5.35081e-11	0.427036	-0.0716529	-0.134932	0.129347	-0.0332149	-0.0744164	3.85427e-11	-0.276909	0.00452468	0.122047	-0.0444626	-0.356373	-0.218325	1.2738	1.46983	-9.21652e-13	-1.70264e-11	-0.186482	-0.0773709	-0.192078	0.688378	1.48281	2.11004e-12	-1.18503e-11
3.71	0.00752552	-0.0436402	-0.0966919	1.70014	1.00974	-0.473214	-0.379723	0.0294388	0.0698768	0.0858724	0.138285	0.093108	5.35081e-11	0.424147	-0.0689169	-0.138565	0.141716	-0.0360239	-0.077344	3.85427e-11	-0.276586	0.000674313	0.12117	-0.0473928	-0.352057	-0.222363	1.26905	1.47033	-9.21652e-13	-1.70264e-11	-0.18646	-0.0787112	-0.192404	0.688141	1.48255	2.11004e-12	-1.18503e-11
3.715	0.00938752	-0.0411468	-0.0974381	1.70783	1.00944	-0.473669	-0.383882	0.0248404	0.065532	0.0949416	0.131578	0.0937331	5.35081e-11	0.421204	-0.0661478	-0.141747	0.154418	-0.0386654	-0.0801734	3.85427e-11	-0.276242	-0.00311446	0.11993	-0.0506653	-0.347421	-0.226626	1.26391	1.47088	-9.21652e-13	-1.70264e-11	-0.186269	-0.080194	-0.192699	0.687838	1.4823	2.11004e-12	-1.18503e-11
3.72	0.0113333	-0.0385576	-0.0977079	1.71556	1.00922	-0.474177	-0.387493	0.0202601	0.0607758	0.105092	0.124434	0.09401	5.35081e-11	0.418298	-0.0631988	-0.14449	0.167371	-0.041074	-0.082884	3.85427e-11	-0.275906	-0.00686439	0.118213	-0.0542187	-0.342481	-0.23107	1.25836	1.47147	-9.21652e-13	-1.70264e-11	-0.185891	-0.0818062	-0.192968	0.687472	1.48208	2.11004e-12	-1.18503e-11
3.725	0.0133731	-0.0358027	-0.097407	1.72334	1.00907	-0.474753	-0.39049	0.0156505	0.0555039	0.116448	0.116884	0.0939546	5.35081e-11	0.415487	-0.0599391	-0.146814	0.180529	-0.0431559	-0.08548	3.85427e-11	-0.275624	-0.0106011	0.115936	-0.0579952	-0.337262	-0.235647	1.25237	1.47211	-9.21652e-13	-1.70264e-11	-0.185316	-0.0835326	-0.193223	0.687056	1.48189	2.11004e-12	-1.18503e-11
3.73	0.0155277	-0.032832	-0.0964922	1.73113	1.00903	-0.475411	-0.392803	0.0109604	0.0496401	0.129166	0.10895	0.0935845	5.35081e-11	0.412784	-0.0562696	-0.14873	0.193858	-0.0447872	-0.0879883	3.85427e-11	-0.275451	-0.014345	0.113062	-0.0619456	-0.331795	-0.240315	1.24594	1.47279	-9.21652e-13	-1.70264e-11	-0.18454	-0.0853554	-0.193471	0.686611	1.48173	2.11004e-12	-1.18503e-11
3.735	0.0178152	-0.0296169	-0.094968	1.73894	1.00908	-0.476156	-0.394356	0.00613724	0.0431405	0.143432	0.10064	0.0929183	5.35081e-11	0.410157	-0.0521289	-0.150245	0.207319	-0.0458249	-0.0904501	3.85427e-11	-0.275444	-0.0181066	0.109601	-0.0660315	-0.326114	-0.245031	1.23907	1.4735	-9.21652e-13	-1.70264e-11	-0.183571	-0.0872551	-0.19372	0.686166	1.4816	2.11004e-12	-1.18503e-11
3.74	0.0202546	-0.0261508	-0.0928814	1.74674	1.00924	-0.47699	-0.395062	0.00112708	0.035993	0.159457	0.0919439	0.0919744	5.35081e-11	0.407535	-0.0474916	-0.151352	0.220848	-0.046124	-0.0929087	3.85427e-11	-0.275655	-0.0218852	0.1056	-0.070226	-0.320263	-0.249762	1.23179	1.47421	-9.21652e-13	-1.70264e-11	-0.182425	-0.0892106	-0.193974	0.685758	1.48149	2.11004e-12	-1.18503e-11
3.745	0.0228665	-0.0224412	-0.0903106	1.75453	1.00949	-0.477913	-0.394822	-0.00412797	0.0282129	0.177462	0.0828265	0.09077	5.35081e-11	0.404817	-0.0423604	-0.152043	0.234352	-0.0455584	-0.0953963	3.85427e-11	-0.276126	-0.025671	0.101137	-0.0745112	-0.314285	-0.25448	1.22412	1.47491	-9.21652e-13	-1.70264e-11	-0.181123	-0.0912014	-0.194235	0.685422	1.48137	2.11004e-12	-1.18503e-11
3.75	0.0256644	-0.0185057	-0.0873602	1.76231	1.00985	-0.478917	-0.39353	-0.00969237	0.01984	0.197666	0.0732267	0.0893195	5.35081e-11	0.401891	-0.0367584	-0.152308	0.247708	-0.044037	-0.0979219	3.85427e-11	-0.276882	-0.0294502	0.0963072	-0.0788754	-0.308227	-0.259163	1.2161	1.47557	-9.21652e-13	-1.70264e-11	-0.17969	-0.0932084	-0.194498	0.685194	1.48122	2.11004e-12	-1.18503e-11
3.755	0.0286493	-0.0143663	-0.0841535	1.77005	1.01032	-0.479997	-0.39107	-0.0156386	0.0109396	0.220261	0.0630555	0.0876308	5.35081e-11	0.39865	-0.0307218	-0.152153	0.26077	-0.0415148	-0.100464	3.85427e-11	-0.277929	-0.0332098	0.0912171	-0.0833108	-0.302138	-0.26379	1.20778	1.47617	-9.21652e-13	-1.70264e-11	-0.178153	-0.0952143	-0.194762	0.685109	1.48106	2.11004e-12	-1.18503e-11
3.76	0.031805	-0.010042	-0.0808193	1.77776	1.01086	-0.481142	-0.387326	-0.022046	0.0016054	0.245391	0.0522008	0.0857032	5.35081e-11	0.395008	-0.0242951	-0.151606	0.273383	-0.0379976	-0.102972	3.85427e-11	-0.279248	-0.0369424	0.085977	-0.0878109	-0.296065	-0.268344	1.19921	1.4767	-9.21652e-13	-1.70264e-11	-0.176535	-0.0972049	-0.195024	0.685195	1.48087	2.11004e-12	-1.18503e-11
3.765	0.0350961	-0.00554658	-0.0774856	1.78542	1.01148	-0.482342	-0.382191	-0.0289957	-0.00803439	0.273131	0.0405389	0.0835256	5.35081e-11	0.390911	-0.0175288	-0.150726	0.285392	-0.0335409	-0.105375	3.85427e-11	-0.280793	-0.0406486	0.0806992	-0.0923692	-0.290053	-0.272803	1.19043	1.47716	-9.21652e-13	-1.70264e-11	-0.174858	-0.0991695	-0.195282	0.685479	1.48068	2.11004e-12	-1.18503e-11
3.77	0.0384617	-0.000891656	-0.0742788	1.79302	1.01216	-0.483584	-0.375567	-0.0365612	-0.017812	0.303467	0.0279541	0.0810777	5.35081e-11	0.386345	-0.0104791	-0.149602	0.296653	-0.0282429	-0.107594	3.85427e-11	-0.282486	-0.0443366	0.0754956	-0.0969787	-0.284144	-0.277142	1.18147	1.47756	-9.21652e-13	-1.70264e-11	-0.173146	-0.101101	-0.195535	0.685983	1.48051	2.11004e-12	-1.18503e-11
3.775	0.0418127	0.00391145	-0.0713178	1.80055	1.01286	-0.484858	-0.367381	-0.0447954	-0.0275184	0.336295	0.0143666	0.0783337	5.35081e-11	0.381332	-0.00320931	-0.148345	0.307044	-0.0222338	-0.109551	3.85427e-11	-0.284232	-0.0480189	0.0704738	-0.10163	-0.278374	-0.281328	1.17237	1.47788	-9.21652e-13	-1.70264e-11	-0.171415	-0.102998	-0.19578	0.686725	1.48037	2.11004e-12	-1.18503e-11
3.78	0.0450481	0.00884254	-0.0687044	1.808	1.01359	-0.486147	-0.357594	-0.0537161	-0.036906	0.371421	-0.000233026	0.0752696	5.04884e-11	0.375921	0.00420976	-0.14708	0.316467	-0.015662	-0.111184	3.69656e-11	-0.285927	-0.0517056	0.0657325	-0.106311	-0.272776	-0.285324	1.16314	1.47812	2.00895e-12	-2.06926e-11	-0.169684	-0.104861	-0.196016	0.687719	1.48028	2.37962e-12	-1.47202e-11
3.785	0.0480851	0.0138694	-0.0665188	1.81537	1.01433	-0.48744	-0.346204	-0.0632934	-0.0456981	0.408574	-0.0157495	0.0718757	5.04884e-11	0.370173	0.0116998	-0.145926	0.32485	-0.00867962	-0.112447	3.69656e-11	-0.287472	-0.0553996	0.0613548	-0.110999	-0.267373	-0.289088	1.15379	1.4783	2.00895e-12	-2.06926e-11	-0.167962	-0.106696	-0.196239	0.688977	1.48024	2.37962e-12	-1.47202e-11
3.79	0.0508547	0.0189457	-0.0648152	1.82265	1.01508	-0.488721	-0.333254	-0.0734422	-0.0536029	0.447428	-0.0319605	0.0681716	5.04884e-11	0.364149	0.0191766	-0.144982	0.33215	-0.00142866	-0.113323	3.69656e-11	-0.288795	-0.0590917	0.057403	-0.115667	-0.262184	-0.292578	1.14433	1.4784	2.00895e-12	-2.06926e-11	-0.166254	-0.10851	-0.196445	0.690503	1.48024	2.37962e-12	-1.47202e-11
3.795	0.0532934	0.0240126	-0.0636255	1.82984	1.01582	-0.489977	-0.318821	-0.0840223	-0.0603295	0.487614	-0.0485219	0.0642192	5.04884e-11	0.357904	0.026553	-0.144317	0.338348	0.00596923	-0.113816	3.69656e-11	-0.289847	-0.0627599	0.0539163	-0.120272	-0.25722	-0.295753	1.13476	1.47842	2.00895e-12	-2.06926e-11	-0.164557	-0.110316	-0.196628	0.692299	1.48029	2.37962e-12	-1.47202e-11
3.8	0.0553689	0.0290038	-0.0629629	1.83694	1.01656	-0.491194	-0.303014	-0.0948457	-0.0656077	0.528733	-0.0650037	0.0601291	5.04884e-11	0.351481	0.0337417	-0.143974	0.343453	0.0134187	-0.11395	3.69656e-11	-0.290615	-0.0663724	0.0509124	-0.124767	-0.252484	-0.298574	1.12507	1.47838	2.00895e-12	-2.06926e-11	-0.162859	-0.112128	-0.196782	0.694361	1.48038	2.37962e-12	-1.47202e-11
